# xmcd
#
# Track frame offsets: 
#        150
#        17447
#        38973
#        52987
#        67040
#        85590
#        102314
#        122324
#        142402
#        155787
#        170894
#        188766
#        204986
#        227502
#
# Disc length: 3181 seconds
#
# Revision: 0
# Processed by: cddbd v1.5.2PL0 Copyright (c) Steve Scherf et al.
# Submitted via: ExactAudioCopy v0.99pb5
#
DISCID=bb0c6b0e
DTITLE=Fragile - Next Level
DYEAR=2010
DGENRE=A Cappella
TTITLE0=The Way You Make Me Feel
TTITLE1=Ain't No Sunshine
TTITLE2=Stand By Me
TTITLE3=Beggin
TTITLE4=Fields Of Gold
TTITLE5=Only You
TTITLE6=Superstition
TTITLE7=Fever
TTITLE8=It's All Right
TTITLE9=Blackbird
TTITLE10=Time Bomb
TTITLE11=Over The Rainbow
TTITLE12=Calling You
TTITLE13=Saxana
EXTD=
EXTT0=
EXTT1=
EXTT2=
EXTT3=
EXTT4=
EXTT5=
EXTT6=
EXTT7=
EXTT8=
EXTT9=
EXTT10=
EXTT11=
EXTT12=
EXTT13=
PLAYORDER=
